<mxfile host="app.diagrams.net" agent="Mozilla/5.0 (Macintosh; Intel Mac OS X 10_15_7) AppleWebKit/605.1.15 (KHTML, like Gecko) Version/17.4.1 Safari/605.1.15" version="26.2.12">
  <diagram name="第 1 页" id="rZHuqhX8mcf8ab5VrxkL">
    <mxGraphModel dx="1428" dy="832" grid="1" gridSize="10" guides="1" tooltips="1" connect="1" arrows="1" fold="1" page="1" pageScale="1" pageWidth="827" pageHeight="1169" math="0" shadow="0">
      <root>
        <mxCell id="0" />
        <mxCell id="1" parent="0" />
        <mxCell id="bgH9FFXuLwX9Ysk2FnxZ-6" value="" style="edgeStyle=orthogonalEdgeStyle;rounded=0;orthogonalLoop=1;jettySize=auto;html=1;" parent="1" source="bgH9FFXuLwX9Ysk2FnxZ-3" target="bgH9FFXuLwX9Ysk2FnxZ-4" edge="1">
          <mxGeometry relative="1" as="geometry" />
        </mxCell>
        <mxCell id="bgH9FFXuLwX9Ysk2FnxZ-3" value="&lt;span style=&quot;font-family: 华文宋体;&quot;&gt;高效隐私集合并集协议研究&lt;/span&gt;" style="rounded=1;whiteSpace=wrap;html=1;" parent="1" vertex="1">
          <mxGeometry x="330" y="100" width="179" height="50" as="geometry" />
        </mxCell>
        <mxCell id="bgH9FFXuLwX9Ysk2FnxZ-8" value="" style="edgeStyle=orthogonalEdgeStyle;rounded=0;orthogonalLoop=1;jettySize=auto;html=1;" parent="1" source="bgH9FFXuLwX9Ysk2FnxZ-4" target="bgH9FFXuLwX9Ysk2FnxZ-7" edge="1">
          <mxGeometry relative="1" as="geometry" />
        </mxCell>
        <mxCell id="bgH9FFXuLwX9Ysk2FnxZ-4" value="&lt;font face=&quot;华文宋体&quot;&gt;第一章 绪论&lt;/font&gt;&lt;div&gt;&lt;font face=&quot;华文宋体&quot;&gt;提出论文的研究背景、现状、目前存在问题及主要研究内容&lt;/font&gt;&lt;/div&gt;" style="rounded=1;whiteSpace=wrap;html=1;" parent="1" vertex="1">
          <mxGeometry x="330" y="180" width="180" height="50" as="geometry" />
        </mxCell>
        <mxCell id="bgH9FFXuLwX9Ysk2FnxZ-7" value="&lt;font face=&quot;华文宋体&quot;&gt;第二章 背景知识&lt;/font&gt;&lt;div&gt;&lt;font face=&quot;华文宋体&quot;&gt;介绍相关的基础理论&lt;/font&gt;&lt;/div&gt;" style="rounded=1;whiteSpace=wrap;html=1;" parent="1" vertex="1">
          <mxGeometry x="330" y="260" width="180" height="50" as="geometry" />
        </mxCell>
        <mxCell id="bgH9FFXuLwX9Ysk2FnxZ-14" value="&lt;div style=&quot;&quot;&gt;&lt;span style=&quot;font-family: 华文宋体;&quot;&gt;第三章 基于新的隐私成员测试协议的高效PSU协议&lt;/span&gt;&lt;/div&gt;&lt;span style=&quot;font-family: -webkit-standard; font-size: medium; text-align: start;&quot;&gt;&lt;/span&gt;" style="rounded=1;whiteSpace=wrap;html=1;" parent="1" vertex="1">
          <mxGeometry x="170" y="340" width="180" height="50" as="geometry" />
        </mxCell>
        <mxCell id="bgH9FFXuLwX9Ysk2FnxZ-15" value="&lt;div style=&quot;&quot;&gt;&lt;span style=&quot;font-family: 华文宋体;&quot;&gt;第四章 基于隐私集合求并集势与秘密分享的高效PCSU协议&lt;/span&gt;&lt;/div&gt;&lt;span style=&quot;font-family: -webkit-standard; font-size: medium; text-align: start;&quot;&gt;&lt;/span&gt;" style="rounded=1;whiteSpace=wrap;html=1;" parent="1" vertex="1">
          <mxGeometry x="480" y="340" width="180" height="50" as="geometry" />
        </mxCell>
        <mxCell id="bgH9FFXuLwX9Ysk2FnxZ-18" value="&lt;div&gt;&lt;font face=&quot;华文宋体&quot;&gt;提出并构造新的协议&lt;/font&gt;&lt;/div&gt;&lt;div&gt;&lt;font face=&quot;华文宋体&quot;&gt;隐私集合求并集势与秘密分享&lt;/font&gt;&lt;/div&gt;" style="rounded=1;whiteSpace=wrap;html=1;" parent="1" vertex="1">
          <mxGeometry x="600" y="420" width="180" height="50" as="geometry" />
        </mxCell>
        <mxCell id="bgH9FFXuLwX9Ysk2FnxZ-48" value="" style="edgeStyle=orthogonalEdgeStyle;rounded=0;orthogonalLoop=1;jettySize=auto;html=1;" parent="1" source="bgH9FFXuLwX9Ysk2FnxZ-22" target="bgH9FFXuLwX9Ysk2FnxZ-47" edge="1">
          <mxGeometry relative="1" as="geometry" />
        </mxCell>
        <mxCell id="bgH9FFXuLwX9Ysk2FnxZ-22" value="&lt;div style=&quot;&quot;&gt;&lt;span style=&quot;font-family: 华文宋体;&quot;&gt;第五章 PSU和PCSU协议&lt;/span&gt;&lt;span style=&quot;font-family: 华文宋体;&quot;&gt;测试与分析&lt;/span&gt;&lt;/div&gt;&lt;div style=&quot;&quot;&gt;&lt;font face=&quot;华文宋体&quot;&gt;对协议进行性仿真实验和性能测试，证明其高效性、可用性&lt;/font&gt;&lt;/div&gt;&lt;span style=&quot;font-family: -webkit-standard; font-size: medium; text-align: start;&quot;&gt;&lt;/span&gt;" style="rounded=1;whiteSpace=wrap;html=1;" parent="1" vertex="1">
          <mxGeometry x="324.5" y="585" width="190" height="50" as="geometry" />
        </mxCell>
        <mxCell id="bgH9FFXuLwX9Ysk2FnxZ-23" value="" style="endArrow=classic;html=1;rounded=0;exitX=0.5;exitY=1;exitDx=0;exitDy=0;entryX=0.5;entryY=0;entryDx=0;entryDy=0;" parent="1" source="bgH9FFXuLwX9Ysk2FnxZ-7" edge="1">
          <mxGeometry width="50" height="50" relative="1" as="geometry">
            <mxPoint x="310" y="330" as="sourcePoint" />
            <mxPoint x="270" y="339.9999999999999" as="targetPoint" />
          </mxGeometry>
        </mxCell>
        <mxCell id="bgH9FFXuLwX9Ysk2FnxZ-29" value="&lt;div style=&quot;&quot;&gt;&lt;font face=&quot;华文宋体&quot;&gt;提出并构造新的技术&lt;/font&gt;&lt;/div&gt;&lt;div style=&quot;&quot;&gt;&lt;font face=&quot;华文宋体&quot;&gt;分布式集合多点函数&lt;/font&gt;&lt;/div&gt;&lt;span style=&quot;font-family: -webkit-standard; font-size: medium; text-align: start;&quot;&gt;&lt;/span&gt;" style="rounded=1;whiteSpace=wrap;html=1;" parent="1" vertex="1">
          <mxGeometry x="40" y="420" width="180" height="50" as="geometry" />
        </mxCell>
        <mxCell id="bgH9FFXuLwX9Ysk2FnxZ-30" value="&lt;div style=&quot;&quot;&gt;&lt;font face=&quot;华文宋体&quot;&gt;提出并构造新的协议&lt;/font&gt;&lt;/div&gt;&lt;div style=&quot;&quot;&gt;&lt;font face=&quot;华文宋体&quot;&gt;多查询随机秘密分享成员测试&lt;/font&gt;&lt;/div&gt;&lt;span style=&quot;font-family: -webkit-standard; font-size: medium; text-align: start;&quot;&gt;&lt;/span&gt;" style="rounded=1;whiteSpace=wrap;html=1;" parent="1" vertex="1">
          <mxGeometry x="323.5" y="420" width="180" height="50" as="geometry" />
        </mxCell>
        <mxCell id="bgH9FFXuLwX9Ysk2FnxZ-32" value="" style="endArrow=classic;html=1;rounded=0;exitX=0.5;exitY=1;exitDx=0;exitDy=0;entryX=0.5;entryY=0;entryDx=0;entryDy=0;" parent="1" source="bgH9FFXuLwX9Ysk2FnxZ-14" target="bgH9FFXuLwX9Ysk2FnxZ-29" edge="1">
          <mxGeometry width="50" height="50" relative="1" as="geometry">
            <mxPoint x="430" y="420" as="sourcePoint" />
            <mxPoint x="480" y="370" as="targetPoint" />
          </mxGeometry>
        </mxCell>
        <mxCell id="bgH9FFXuLwX9Ysk2FnxZ-33" value="" style="endArrow=classic;html=1;rounded=0;exitX=0.5;exitY=1;exitDx=0;exitDy=0;entryX=0.5;entryY=0;entryDx=0;entryDy=0;" parent="1" source="bgH9FFXuLwX9Ysk2FnxZ-14" target="bgH9FFXuLwX9Ysk2FnxZ-30" edge="1">
          <mxGeometry width="50" height="50" relative="1" as="geometry">
            <mxPoint x="430" y="420" as="sourcePoint" />
            <mxPoint x="480" y="370" as="targetPoint" />
          </mxGeometry>
        </mxCell>
        <mxCell id="bgH9FFXuLwX9Ysk2FnxZ-34" value="" style="endArrow=classic;html=1;rounded=0;exitX=0.5;exitY=1;exitDx=0;exitDy=0;entryX=0.5;entryY=0;entryDx=0;entryDy=0;" parent="1" source="bgH9FFXuLwX9Ysk2FnxZ-15" target="bgH9FFXuLwX9Ysk2FnxZ-18" edge="1">
          <mxGeometry width="50" height="50" relative="1" as="geometry">
            <mxPoint x="430" y="420" as="sourcePoint" />
            <mxPoint x="480" y="370" as="targetPoint" />
          </mxGeometry>
        </mxCell>
        <mxCell id="bgH9FFXuLwX9Ysk2FnxZ-35" value="" style="endArrow=classic;html=1;rounded=0;exitX=1;exitY=0.5;exitDx=0;exitDy=0;entryX=0;entryY=0.5;entryDx=0;entryDy=0;dashed=1;" parent="1" source="bgH9FFXuLwX9Ysk2FnxZ-29" target="bgH9FFXuLwX9Ysk2FnxZ-30" edge="1">
          <mxGeometry width="50" height="50" relative="1" as="geometry">
            <mxPoint x="430" y="420" as="sourcePoint" />
            <mxPoint x="480" y="370" as="targetPoint" />
          </mxGeometry>
        </mxCell>
        <mxCell id="bgH9FFXuLwX9Ysk2FnxZ-36" value="" style="endArrow=classic;html=1;rounded=0;exitX=1;exitY=0.5;exitDx=0;exitDy=0;entryX=0;entryY=0.5;entryDx=0;entryDy=0;dashed=1;" parent="1" source="bgH9FFXuLwX9Ysk2FnxZ-30" target="bgH9FFXuLwX9Ysk2FnxZ-18" edge="1">
          <mxGeometry width="50" height="50" relative="1" as="geometry">
            <mxPoint x="430" y="420" as="sourcePoint" />
            <mxPoint x="480" y="370" as="targetPoint" />
          </mxGeometry>
        </mxCell>
        <mxCell id="bgH9FFXuLwX9Ysk2FnxZ-38" value="&lt;div style=&quot;&quot;&gt;&lt;font face=&quot;华文宋体&quot;&gt;高效且通信友好的&lt;/font&gt;&lt;/div&gt;&lt;div style=&quot;&quot;&gt;&lt;font face=&quot;华文宋体&quot;&gt;隐私集合并集协议设计&lt;/font&gt;&lt;/div&gt;&lt;span style=&quot;font-family: -webkit-standard; font-size: medium; text-align: start;&quot;&gt;&lt;/span&gt;" style="rounded=1;whiteSpace=wrap;html=1;" parent="1" vertex="1">
          <mxGeometry x="170" y="500" width="180" height="50" as="geometry" />
        </mxCell>
        <mxCell id="bgH9FFXuLwX9Ysk2FnxZ-39" value="&lt;div style=&quot;&quot;&gt;&lt;font face=&quot;华文宋体&quot;&gt;高效通用PCSU协议设计&lt;/font&gt;&lt;/div&gt;&lt;div style=&quot;&quot;&gt;&lt;font face=&quot;华文宋体&quot;&gt;特定功能PCSU协议设计&lt;/font&gt;&lt;/div&gt;&lt;span style=&quot;font-family: -webkit-standard; font-size: medium; text-align: start;&quot;&gt;&lt;/span&gt;" style="rounded=1;whiteSpace=wrap;html=1;" parent="1" vertex="1">
          <mxGeometry x="480" y="500" width="180" height="50" as="geometry" />
        </mxCell>
        <mxCell id="bgH9FFXuLwX9Ysk2FnxZ-40" value="" style="endArrow=classic;html=1;rounded=0;exitX=0.5;exitY=1;exitDx=0;exitDy=0;entryX=0.5;entryY=0;entryDx=0;entryDy=0;" parent="1" source="bgH9FFXuLwX9Ysk2FnxZ-29" target="bgH9FFXuLwX9Ysk2FnxZ-38" edge="1">
          <mxGeometry width="50" height="50" relative="1" as="geometry">
            <mxPoint x="380" y="400" as="sourcePoint" />
            <mxPoint x="430" y="350" as="targetPoint" />
          </mxGeometry>
        </mxCell>
        <mxCell id="bgH9FFXuLwX9Ysk2FnxZ-42" value="" style="endArrow=classic;html=1;rounded=0;exitX=0.5;exitY=1;exitDx=0;exitDy=0;entryX=0.5;entryY=0;entryDx=0;entryDy=0;" parent="1" source="bgH9FFXuLwX9Ysk2FnxZ-30" target="bgH9FFXuLwX9Ysk2FnxZ-38" edge="1">
          <mxGeometry width="50" height="50" relative="1" as="geometry">
            <mxPoint x="380" y="400" as="sourcePoint" />
            <mxPoint x="430" y="350" as="targetPoint" />
          </mxGeometry>
        </mxCell>
        <mxCell id="bgH9FFXuLwX9Ysk2FnxZ-43" value="" style="endArrow=classic;html=1;rounded=0;exitX=0.5;exitY=1;exitDx=0;exitDy=0;entryX=0.5;entryY=0;entryDx=0;entryDy=0;" parent="1" source="bgH9FFXuLwX9Ysk2FnxZ-18" target="bgH9FFXuLwX9Ysk2FnxZ-39" edge="1">
          <mxGeometry width="50" height="50" relative="1" as="geometry">
            <mxPoint x="380" y="400" as="sourcePoint" />
            <mxPoint x="430" y="350" as="targetPoint" />
          </mxGeometry>
        </mxCell>
        <mxCell id="bgH9FFXuLwX9Ysk2FnxZ-44" value="" style="endArrow=classic;html=1;rounded=0;entryX=0.5;entryY=0;entryDx=0;entryDy=0;" parent="1" target="bgH9FFXuLwX9Ysk2FnxZ-15" edge="1">
          <mxGeometry width="50" height="50" relative="1" as="geometry">
            <mxPoint x="420" y="310" as="sourcePoint" />
            <mxPoint x="430" y="350" as="targetPoint" />
          </mxGeometry>
        </mxCell>
        <mxCell id="bgH9FFXuLwX9Ysk2FnxZ-45" value="" style="endArrow=classic;html=1;rounded=0;exitX=0.5;exitY=1;exitDx=0;exitDy=0;entryX=0.5;entryY=0;entryDx=0;entryDy=0;" parent="1" source="bgH9FFXuLwX9Ysk2FnxZ-38" target="bgH9FFXuLwX9Ysk2FnxZ-22" edge="1">
          <mxGeometry width="50" height="50" relative="1" as="geometry">
            <mxPoint x="380" y="460" as="sourcePoint" />
            <mxPoint x="430" y="410" as="targetPoint" />
          </mxGeometry>
        </mxCell>
        <mxCell id="bgH9FFXuLwX9Ysk2FnxZ-46" value="" style="endArrow=classic;html=1;rounded=0;exitX=0.5;exitY=1;exitDx=0;exitDy=0;entryX=0.5;entryY=0;entryDx=0;entryDy=0;" parent="1" source="bgH9FFXuLwX9Ysk2FnxZ-39" target="bgH9FFXuLwX9Ysk2FnxZ-22" edge="1">
          <mxGeometry width="50" height="50" relative="1" as="geometry">
            <mxPoint x="270" y="560" as="sourcePoint" />
            <mxPoint x="420" y="580" as="targetPoint" />
          </mxGeometry>
        </mxCell>
        <mxCell id="bgH9FFXuLwX9Ysk2FnxZ-47" value="&lt;div style=&quot;&quot;&gt;&lt;font face=&quot;华文宋体&quot;&gt;总结与展望&lt;/font&gt;&lt;/div&gt;&lt;div style=&quot;&quot;&gt;&lt;font face=&quot;华文宋体&quot;&gt;对全文工作进行总结&lt;/font&gt;&lt;/div&gt;&lt;span style=&quot;font-family: -webkit-standard; font-size: medium; text-align: start;&quot;&gt;&lt;/span&gt;" style="rounded=1;whiteSpace=wrap;html=1;" parent="1" vertex="1">
          <mxGeometry x="329.5" y="660" width="180" height="50" as="geometry" />
        </mxCell>
      </root>
    </mxGraphModel>
  </diagram>
</mxfile>
